<?xml version="1.0" standalone="no"?>
<!DOCTYPE svg PUBLIC "-//W3C//DTD SVG 20010904//EN"
 "http://www.w3.org/TR/2001/REC-SVG-20010904/DTD/svg10.dtd">
<svg version="1.0" xmlns="http://www.w3.org/2000/svg"
 width="512.000000pt" height="512.000000pt" viewBox="0 0 512.000000 512.000000"
 preserveAspectRatio="xMidYMid meet">

<g transform="translate(0.000000,512.000000) scale(0.100000,-0.100000)"
fill="#000000" stroke="none">
<path d="M3680 4720 l0 -80 720 0 720 0 0 80 0 80 -720 0 -720 0 0 -80z"/>
<path d="M3680 4400 l0 -80 720 0 720 0 0 80 0 80 -720 0 -720 0 0 -80z"/>
<path d="M3680 4080 l0 -80 720 0 720 0 0 80 0 80 -720 0 -720 0 0 -80z"/>
<path d="M4845 3804 c13 -19 27 -55 31 -80 9 -62 -3 -127 -31 -168 l-24 -36
149 0 150 0 0 160 0 160 -150 0 -149 0 24 -36z"/>
<path d="M0 3671 c0 -46 26 -178 46 -230 56 -148 153 -256 304 -338 196 -107
301 -279 287 -469 -4 -57 -64 -257 -283 -950 -259 -819 -278 -884 -279 -954 0
-63 5 -84 28 -133 33 -65 84 -118 142 -147 23 -11 174 -59 335 -107 271 -80
302 -87 380 -87 106 1 144 17 220 92 64 64 57 45 251 664 l83 266 146 4 c163
3 186 11 230 76 l25 36 0 366 0 366 -25 37 c-14 20 -35 42 -47 48 -13 7 -23
18 -23 24 0 25 152 493 176 543 36 74 122 163 195 202 105 55 136 60 440 60
269 0 277 1 319 23 30 16 51 37 67 67 21 40 23 55 23 217 l0 173 705 0 c388 0
705 1 705 3 0 1 -11 24 -25 51 -14 27 -25 62 -25 78 l0 28 -2200 0 c-1346 0
-2200 -4 -2200 -9z"/>
<path d="M3680 3200 l0 -160 720 0 720 0 0 160 0 160 -720 0 -720 0 0 -160z"/>
<path d="M3680 2800 l0 -80 720 0 720 0 0 80 0 80 -720 0 -720 0 0 -80z"/>
<path d="M3680 2400 l0 -160 720 0 720 0 0 160 0 160 -720 0 -720 0 0 -160z"/>
<path d="M3680 2000 l0 -80 720 0 720 0 0 80 0 80 -720 0 -720 0 0 -80z"/>
<path d="M3680 1680 l0 -80 720 0 720 0 0 80 0 80 -720 0 -720 0 0 -80z"/>
<path d="M3680 1280 l0 -160 720 0 720 0 0 160 0 160 -720 0 -720 0 0 -160z"/>
<path d="M3680 880 l0 -80 720 0 720 0 0 80 0 80 -720 0 -720 0 0 -80z"/>
</g>
</svg>
